<?xml version="1.0" encoding="utf-8"?>
<svg viewBox="0 0 150 150" xmlns="http://www.w3.org/2000/svg">
  <path style="stroke: rgb(37, 247, 72); stroke-linecap: round; paint-order: fill; stroke-miterlimit: 1; stroke-width: 3px;" d="M 75 140 C 95 140 130 110 130 95 C 145 85 140 55 130 65 C 130 45 108 15.8 75 15 C 41.1 14.2 20 45 20 65 C 10 55 5 85 20 95 C 20 110 55 140 75 140 Z"/>
  <path style="stroke-linejoin: round; fill: rgb(37, 247, 72);" d="M 20 75 L 25 75 L 30 50 C 39 35.7 58 25.6 75 25 C 95 25 125 50 125 75 L 130 75 C 130 75 134.5 42.1 118.4 30 L 125 30 C 115.9 18.6 89.8 10 75 10 C 53.9 10 27.5 24.8 18.6 44.7 L 20 75 Z"/>
  <path d="M 49.5 77.3 L 62.9 82 L 62.9 88.6 L 42.7 80 L 42.7 74.5 L 62.9 65.9 L 62.9 72.5 L 49.5 77.3 Z M 70.6 94.7 L 65.5 94.7 L 78.1 57.7 L 83.1 57.7 L 70.6 94.7 Z M 100.2 77.2 L 86.6 72.5 L 86.6 66 L 107 74.5 L 107 80 L 86.6 88.6 L 86.6 82.1 L 100.2 77.2 Z" style="fill: rgb(37, 247, 72); white-space: pre;"/>
</svg>