<?xml version="1.0" encoding="utf-8"?>
<svg viewBox="0 0 150 150" xmlns="http://www.w3.org/2000/svg">
  <path style="" d="M 75 140 C 95 140 130 110 130 95 C 145 85 140 55 130 65 C 130 45 108 15.8 75 15 C 41.1 14.2 20 45 20 65 C 10 55 5 85 20 95 C 20 110 55 140 75 140 Z"/>
  <path style="stroke: rgb(0, 0, 0); stroke-linejoin: round; fill: rgb(110, 110, 110);" d="M 20 75 L 25 75 L 30 50 C 39 35.7 58 25.6 75 25 C 95 25 125 50 125 75 L 130 75 C 130 75 130 42.4 118.4 30 C 118.4 30 127.5 33.1 125 30 C 115.9 18.6 89.8 10 75 10 C 53.9 10 28.9 25.1 20 45 L 20 75 Z"/>
  <path d="M 49.50954818725586 77.31562805175781 L 62.86892318725586 82.02656555175781 L 62.86892318725586 88.58906555175781 L 42.68923568725586 80.03437805175781 L 42.68923568725586 74.50312805175781 L 62.86892318725586 65.94844055175781 L 62.86892318725586 72.51094055175781 Z M 70.57465362548828 94.72969055175781 L 65.53559112548828 94.72969055175781 L 78.09809112548828 57.67500305175781 L 83.13715362548828 57.67500305175781 Z M 100.20052337646484 77.24531555175781 L 86.58333587646484 72.48750305175781 L 86.58333587646484 65.97187805175781 L 106.99739837646484 74.52656555175781 L 106.99739837646484 80.03437805175781 L 86.58333587646484 88.61250305175781 L 86.58333587646484 82.07344055175781 Z" transform="matrix(1, 0, 0, 1, 0, 0)" style="fill: rgb(37, 247, 72); white-space: pre;"/>
</svg>